<svg xmlns="http://www.w3.org/2000/svg" viewBox="0 0 16 16"><style>svg{fill:#f0db4f}</style><path d="M15,14a1,1,0,0,0-1-1,1,1,0,0,0-1-1,1,1,0,0,0-1-1l-.86-.86a6.25358,6.25358,0,1,0-1,1L11,12a1,1,0,0,0,1,1,1,1,0,0,0,1,1,1,1,0,0,0,1,1,1,1,0,1,0,1-1ZM10.41437,9.41437,9,8,8,9l1.41437,1.41437A5.23344,5.23344,0,1,1,11.5,6.25,5.202,5.202,0,0,1,10.41437,9.41437Z"/><path d="M0,16H1l1.71356-3.42719a7.25031,7.25031,0,0,1-.7539-.49206Z"/><path d="M12.47021,10.05566a1.98469,1.98469,0,0,1,.73823.36127l-.47559-.95117c-.094.18835-.18195.37927-.29291.56012Z"/><path d="M8.26605,2.532,10.43951,6.879A4.09042,4.09042,0,0,0,10.5,6.25,4.2366,4.2366,0,0,0,8.26605,2.532Z"/><path d="M6.96393,2.0722,3.33606,9.32782a4.26168,4.26168,0,0,0,.72656.547l.254-.508a5.54163,5.54163,0,0,0,1.44946,1.08423A4.166,4.166,0,0,0,6.25,10.5a4.11186,4.11186,0,0,0,1.5376-.29834l-.2312-.2312a5.30021,5.30021,0,0,1-2.90662-1.27L7.84216,2.31573A4.21037,4.21037,0,0,0,6.96393,2.0722Z"/></svg>