<svg xmlns="http://www.w3.org/2000/svg" viewBox="0 0 310.27118 128"><style>svg{fill:#000}</style><path d="M104,24a8,8,0,1,0-8-8A8,8,0,0,0,104,24Zm0-14a6,6,0,1,1-6,6A6.00657,6.00657,0,0,1,104,10Z"/><path d="M125.97424,128H128v-2.02576A10.07142,10.07142,0,0,1,125.97424,128Z"/><path d="M110.84479,124H16L28.74847,97.44061a51.99564,51.99564,0,0,1-8.90832-5.12085L4,124V81l1.951-3.41425q-.60571-.96359-1.16815-1.95568L4,77V74.20947a51.65915,51.65915,0,0,1-4-9.964V128H114.02A10.04794,10.04794,0,0,1,110.84479,124Z"/><path d="M91.77637,80.94824l5.08886,5.08887A10.02162,10.02162,0,0,1,105.832,94.168a9.955,9.955,0,0,1,4.17456,1.84521L97.54474,71.08954A51.98461,51.98461,0,0,1,91.77637,80.94824Z"/><path d="M4,4H25.79053a51.65915,51.65915,0,0,1,9.964-4H0V35.75458a51.65915,51.65915,0,0,1,4-9.964Z"/><path d="M64.24542,0a51.65915,51.65915,0,0,1,9.96405,4H124V61L112,40,101.26031,58.79443a51.19209,51.19209,0,0,1-1.676,6.933L104,58a13.33338,13.33338,0,0,0,16,0l4,7v45.84479a10.04794,10.04794,0,0,1,4,3.17517V0Zm40.575,56.56421L112,44l7.17957,12.56421A13.32933,13.32933,0,0,1,104.82043,56.56421Z"/><path d="M16,56l-3.88666,6.8017c.27716.81793.57544,1.62591.9032,2.41931L16,60l7.17957,12.56421a13.28458,13.28458,0,0,1-4.80951,1.87848q.66467.858,1.37451,1.67761A13.29189,13.29189,0,0,0,24,74l2.66669,4.66669L25.2901,81.41986a40.03763,40.03763,0,0,0,8.65076,5.20337l6.783-14.13135C44.62054,75.15222,48.38043,76.33472,52,76c5.4137-.50067,6.71942-4,12-4a9.78708,9.78708,0,0,1,4.24561.92627l5.392-5.392C70.05817,66.43915,68.41357,64,64,64c-5.28058,0-6.5863,3.49933-12,4a15.38264,15.38264,0,0,1-8.28247-1.74487L64,24,84.28247,66.25507A16.9259,16.9259,0,0,1,78.78113,67.953l4.381,4.381a39.46091,39.46091,0,0,0,6.475-17.05981L69.56573,15.13147a39.73938,39.73938,0,0,0-9.24438-3.77417l-32.588,65.176Z"/><path d="M120,112a8,8,0,0,0-8-8,8,8,0,0,0-8-8,8,8,0,0,0-8-8l-6.87976-6.87976a50.02811,50.02811,0,1,0-8,8L88,96a8,8,0,0,0,8,8,8,8,0,0,0,8,8,8,8,0,0,0,8,8,8,8,0,1,0,8-8ZM83.41119,75.41119,76,68l-8,8,7.41119,7.41119a42.05841,42.05841,0,1,1,8-8ZM120,124a4.004,4.004,0,0,1-4-4v-4h-4a4.004,4.004,0,0,1-4-4v-4h-4a4.004,4.004,0,0,1-4-4v-4H96a4,4,0,1,1,4-4v4h4a4.004,4.004,0,0,1,4,4v4h4a4.004,4.004,0,0,1,4,4v4h4a4,4,0,0,1,0,8Z"/><path d="M216.267,44.51782q0-6.95306,4.44214-9.94659A14.19108,14.19108,0,0,1,230.9458,32.2536V18.3479A17.08549,17.08549,0,0,0,221.868,20.762a12.64543,12.64543,0,0,0-5.601,6.85633V19.31354H203.80975v48.2843H216.267Z"/><path d="M190.96777,69.84094q-1.19879-1.19879-2.463-2.24316H199.928L176.1723,0H159.65912L136,67.59778h11.86108q-1.26369,1.0458-2.463,2.24316A30.94447,30.94447,0,0,0,136,92.71448a31.93922,31.93922,0,0,0,32.18335,32.27118,31.61045,31.61045,0,0,0,15.60345-3.989L190.525,128l8.68775-7.713-6.383-6.64936a31.2767,31.2767,0,0,0,7.62451-20.92315A30.79946,30.79946,0,0,0,190.96777,69.84094ZM167.964,15.35425l9.27045,27.61841h-18.541ZM154.44452,55.42987h26.94232l3.11255,9.33771a32.87245,32.87245,0,0,0-33.30689.41852Zm30.051,49.43073L173.5907,93.51245l-8.68768,7.7132,10.19525,10.63885a21.22053,21.22053,0,0,1-6.91492,1.15253,19.38587,19.38587,0,0,1-14.27435-5.7627,19.71049,19.71049,0,0,1-5.76264-14.53985A19.82022,19.82022,0,0,1,153.909,78.08612a20.55895,20.55895,0,0,1,28.54785,0,19.8202,19.8202,0,0,1,5.76257,14.62836A20.65655,20.65655,0,0,1,184.49554,104.8606Z"/><path d="M236.71423,103.35345q0,5.408-2.65991,8.24506a9.23767,9.23767,0,0,1-7.09253,2.74829,8.74563,8.74563,0,0,1-6.47217-2.39368,9.31985,9.31985,0,0,1-2.30474-6.73791V79.41589H206.74805v27.21784q0,8.51111,4.69867,13.47571a16.193,16.193,0,0,0,12.05719,4.87622q9.13246,0,13.21032-6.20618v4.96545h11.43683v-44.329H236.71423Z"/><path d="M257.405,62.12775a6.94352,6.94352,0,0,1,7.66229-1.59809V56.299q-3.57294.19318-5.98706.09662a5.96445,5.96445,0,0,1-3.66925-1.352,4.77588,4.77588,0,0,1-1.25519-3.66956V31.288h10.9115V19.31354h-10.9115V5.79407L241.69855,9.56018v9.75336h-8.402V31.288h8.402V51.37408q0,10.04371,5.31048,13.90595a17.30041,17.30041,0,0,0,8.39612,2.5658,7.514,7.514,0,0,1-.03967-.7533A6.95075,6.95075,0,0,1,257.405,62.12775Z"/><path d="M265.06732,60.52966v7.06818a48.31357,48.31357,0,0,1-9.66217.248,6.95652,6.95652,0,0,0,6.96448,6.25067,6.96043,6.96043,0,0,0,4.96466-11.96875A6.87269,6.87269,0,0,0,265.06732,60.52966Z"/><rect x="256.69543" y="79.41589" width="11.43683" height="44.32904"/><polygon points="290.589 113.017 309.385 87.04 309.385 79.416 276.138 79.416 276.138 90.143 293.958 90.143 275.252 116.12 275.252 123.745 310.271 123.745 310.271 113.017 290.589 113.017"/></svg>