<svg version="1.1" xmlns="http://www.w3.org/2000/svg" x="0px" y="0px" viewBox="0 0 95 128">
<style type="text/css">
	.st0{fill:#FFFFFF;}
	.st1{fill:#278D9F;}
</style>
<g>
	<path class="st0" d="M90.1,59.7c-5.5-11.3-16.3-20.6-27.7-24.2l-0.6-0.2l0-7.1c0-7.9,0-7.6-0.8-8.9c-1.3-2.3-2.6-2.8-7.6-2.8h-3.5
		l0-7.4l0-7.4l-0.3-0.5c-0.5-1.1-2.1-1.6-3.2-1.1C45,0.8,45,0.8,45,9.4v7.2h-3.5c-5,0-6.3,0.5-7.6,2.8c-0.7,1.3-0.7,1-0.8,8.9l0,7.1
		l-1,0.4c-17.4,6-29.6,21.1-31.8,39.4C0,77.1,0,83.8,0.2,85.6c1.7,14.2,8.7,25.9,20.1,34c11.9,8.4,27.9,10.8,41.8,6.2
		C89.6,116.7,102.8,85.6,90.1,59.7z M56.8,33.1H38V21.8l0.3-0.2c0.4-0.3,17.8-0.3,18.2,0h0l0.3,0.2V33.1z"/>
	<path class="st1" d="M49.4,38c32.9,1.6,51.7,38.2,33.8,65.7c-16.8,25.8-54.7,25.8-71.4,0C-6.1,76.4,12.6,39.6,45.3,38
		c0.9,0,1.7-0.1,1.8-0.1S48.2,38,49.4,38z"/>
</g>
</svg>