<svg width="20" height="20" viewBox="0 0 20 20" fill="none" xmlns="http://www.w3.org/2000/svg">
<path d="M9.99974 0C7.67522 0.00823729 5.42618 0.826025 3.63928 2.31277C1.85237 3.79952 0.639231 5.86234 0.208417 8.1466C-0.222397 10.4309 0.15603 12.7939 1.27864 14.8293C2.40125 16.8648 4.19791 18.4456 6.35974 19.3C6.25974 18.51 6.18974 17.3 6.38974 16.43L7.55974 11.46C7.55974 11.46 7.25974 10.86 7.25974 9.98C7.25974 8.59 8.06974 7.56 9.07974 7.56C9.92974 7.56 10.3497 8.2 10.3497 8.96C10.3497 9.82 9.79974 11.1 9.50974 12.29C9.26974 13.29 10.0097 14.1 10.9997 14.1C12.7797 14.1 14.1397 12.23 14.1397 9.53C14.1397 7.13 12.4197 5.47 9.95974 5.47C9.37533 5.44433 8.79178 5.53734 8.24431 5.74342C7.69684 5.94951 7.19681 6.26438 6.77439 6.66904C6.35197 7.07371 6.01592 7.55977 5.78653 8.09789C5.55715 8.63601 5.43917 9.21503 5.43974 9.8C5.43974 10.66 5.76974 11.58 6.17974 12.08C6.25974 12.18 6.26974 12.27 6.23974 12.37L5.95974 13.5C5.91974 13.68 5.80974 13.73 5.62974 13.64C4.36974 13.05 3.58974 11.24 3.58974 9.76C3.58974 6.61 5.88974 3.72 10.2097 3.72C13.6697 3.72 16.3797 6.18 16.3797 9.49C16.3797 12.94 14.1997 15.71 11.1797 15.71C10.1797 15.71 9.21974 15.18 8.89974 14.56L8.26974 16.93C7.9746 17.8577 7.55763 18.7421 7.02974 19.56C8.40357 19.9816 9.85212 20.1021 11.2767 19.9133C12.7013 19.7245 14.0685 19.2309 15.2851 18.4661C16.5018 17.7014 17.5393 16.6833 18.327 15.4814C19.1147 14.2795 19.6341 12.9219 19.8499 11.5011C20.0656 10.0804 19.9726 8.62979 19.5771 7.24822C19.1817 5.86664 18.4931 4.58652 17.5584 3.49506C16.6236 2.40359 15.4645 1.52642 14.1602 0.923296C12.8558 0.320168 11.4368 0.00525257 9.99974 0Z" fill="white"/>
</svg>
